# xmcd
#
# Track frame offsets:
#	150
#	14827
#	30263
#	45147
#	60991
#	75573
#	90085
#	101891
#	115534
#	129274
#
# Disc length: 1877 seconds
#
# Revision: 0
# Processed by: cddbd v1.5.2PL0 Copyright (c) Steve Scherf et al.
# Submitted via: EasyCDDAExtractor 16.0.6.1
#
DISCID=6107530a
DTITLE=Συλλογικός δίσκος - Λαϊκό τραγούδι 1954-1967, 1957-3
DYEAR=2008
DGENRE=Λαϊκή
TTITLE0=Γκρέϋ Καίτη - Πω! πω! Τρέλλες [Στέλιος Χρυσίνης-Κώστας Ζήτης]
TTITLE1=Καζαντζίδης Στέλιος - Ο πατέρας [Μπάμπης Μπακάλης]
TTITLE2=Μπιθικώτσης Γρηγόρης - Αναστενάχτε σήμαντρα [Μπάμπης Μπακάλης-Δημήτρης
TTITLE2=Γκούτης]
TTITLE3=Λύδια Γιώτα-Ατταλίδης Στράτος - Μιά μελαχροινή [Στελλάκης Περπινιάδης-
TTITLE3=Παναγιώτης Κοκοντίνης]
TTITLE4=Καζαντζίδης Στέλιος-Νέγκρη Πίτσα - Έλα κορίτσι μου [Βασίλης Καραπατάκη
TTITLE4=ς-Χρήστος Κολοκοτρώνης]
TTITLE5=Πάνου Πόλυ-Κλειδωνιάρης Αντώνης - Κοινωνία και γυναίκα [Βασίλης Τσιτσά
TTITLE5=νης-Νίκος Λούπας]
TTITLE6=Καζαντζίδης Στέλιος - Άνοιξε, μάννα, άνοιξε [Θεόδωρος Δερβενιώτης-Κώστ
TTITLE6=ας Βίρβος]
TTITLE7=Πάνου Πόλυ-Κυριαζής Γιάννης - Αν δεν είχα εσένα [Μπάμπης Μπακάλης]
TTITLE8=Γαβαλάς Πάνος - Το κληρωτάκι [Νίκος Μεϊμάρης]
TTITLE9=Παπαϊωάννου Γιάννης-Γκρέϋ Καίτη - Θέλω τρελλά, να μ' αγαπάς [Γιάννης Π
TTITLE9=απαϊωάννου]
EXTD=
EXTT0=
EXTT1=
EXTT2=
EXTT3=
EXTT4=
EXTT5=
EXTT6=
EXTT7=
EXTT8=
EXTT9=
PLAYORDER=
